<svg xmlns="http://www.w3.org/2000/svg" width="106.25" height="38.5" viewBox="0 0 106.25 38.5">
  <defs>
    <style>
      .cls-1, .cls-4 {
        fill: #2e2e2e;
      }

      .cls-1 {
        font-size: 20px;
        font-family: SourceHanSansCN-Medium, Source Han Sans CN;
        font-weight: 500;
      }

      .cls-2, .cls-3 {
        fill: #ea441a;
      }

      .cls-2 {
        stroke: #ea441a;
        stroke-width: 0.5px;
      }

      .cls-4 {
        font-size: 10px;
        font-family: SourceHanSansCN-Regular, Source Han Sans CN;
      }
    </style>
  </defs>
  <g id="组_746" data-name="组 746" transform="translate(-397.75 -4.75)">
    <g id="组_379" data-name="组 379" transform="translate(442 6.133)">
      <text id="万才网" class="cls-1" transform="translate(0 18)"><tspan x="0" y="0">万才网</tspan></text>
    </g>
    <g id="组_1" data-name="组 1" transform="translate(398 5)">
      <path id="路径_210" data-name="路径 210" class="cls-2" d="M174.528,101.926a19,19,0,1,0,19,19A19.022,19.022,0,0,0,174.528,101.926Zm0,37.042a18.042,18.042,0,1,1,18.042-18.042A18.062,18.062,0,0,1,174.528,138.968Z" transform="translate(-155.528 -101.926)"/>
      <path id="路径_211" data-name="路径 211" class="cls-3" d="M192.185,140.654l-2.167-3.75,8.367-14.476a15.979,15.979,0,0,0-25.648,0l11.738,20.311-2.1,3.843-11.762-20.274a15.977,15.977,0,1,0,29.895,0Zm-3.226,5.928-10.916-18.815-.556-.958c-1.863-5.395,3.484-5.994,3.484-5.994h9.162s5.41.6,3.452,6.087l-.5.866-1.593,2.764-.585,1.015-2.021,3.506-2.177-3.769.353-.621,1.646-2.894.391-.688s.019-.04.046-.108l0-.008c0-.008.006-.016.009-.025l.009-.023.009-.024.01-.031.008-.024.014-.044c0-.006,0-.011.005-.017s.012-.042.018-.064l.006-.024c0-.015.008-.031.011-.047l.007-.03c0-.015.006-.031.009-.046s0-.022.006-.032.006-.033.008-.05,0-.021.005-.032.006-.044.008-.066,0-.027,0-.041,0-.039,0-.058,0-.027,0-.041,0-.031,0-.047,0-.03,0-.044,0-.03,0-.044,0-.032,0-.048,0-.028,0-.042,0-.034-.005-.051,0-.019,0-.029c-.006-.037-.013-.074-.022-.112,0-.011,0-.022-.008-.032s-.011-.038-.016-.057-.007-.022-.011-.033-.013-.038-.021-.057l-.013-.031c-.008-.02-.017-.039-.026-.059l-.012-.023a1.22,1.22,0,0,0-.132-.2l-.014-.018c-.016-.02-.034-.039-.052-.058l-.021-.022c-.018-.019-.037-.037-.057-.055l-.023-.02c-.022-.019-.044-.037-.067-.055l-.011-.008a1.706,1.706,0,0,0-.276-.168l-.03-.015-.093-.041-.042-.017-.1-.036-.047-.015c-.036-.011-.072-.023-.11-.033h0a3.5,3.5,0,0,0-.4-.039h-4.251a3.5,3.5,0,0,0-.4.039h0c-.038.01-.074.022-.11.033l-.047.015-.1.036-.042.017-.094.041-.03.015a1.706,1.706,0,0,0-.276.168l-.011.008c-.023.018-.046.037-.067.055l-.022.02c-.02.018-.039.037-.058.055l-.021.022c-.018.019-.035.038-.051.058l-.014.018a1.22,1.22,0,0,0-.132.2l-.012.023c-.01.02-.018.039-.027.059l-.012.031c-.008.019-.014.038-.021.057s-.007.022-.011.033-.011.038-.016.057-.005.022-.008.032c-.009.037-.016.074-.022.112,0,.01,0,.019,0,.029s0,.034-.005.051,0,.028,0,.042,0,.032,0,.048,0,.03,0,.044,0,.03,0,.044,0,.032,0,.047,0,.027,0,.041,0,.039,0,.058,0,.028,0,.041,0,.044.008.066,0,.021.005.032.005.033.008.05,0,.022.006.032.006.031.009.046,0,.02.007.03l.012.047c0,.008,0,.016.006.024s.012.043.018.064,0,.011,0,.017l.014.044.008.024.01.031.009.024.009.023c0,.008.006.017.009.025l0,.008c.011.03.021.053.029.071l9.072,15.7Z" transform="translate(-166.56 -112.959)"/>
    </g>
    <text id="WAN_CAI_NET" data-name="WAN CAI NET" class="cls-4" transform="translate(442 40.029)"><tspan x="0" y="0">WAN CAI NET</tspan></text>
  </g>
</svg>
